<?xml version="1.0" encoding="UTF-8" standalone="no"?>
<svg
   xmlns:dc="http://purl.org/dc/elements/1.1/"
   xmlns:cc="http://creativecommons.org/ns#"
   xmlns:rdf="http://www.w3.org/1999/02/22-rdf-syntax-ns#"
   xmlns:svg="http://www.w3.org/2000/svg"
   xmlns="http://www.w3.org/2000/svg"
   xmlns:sodipodi="http://sodipodi.sourceforge.net/DTD/sodipodi-0.dtd"
   xmlns:inkscape="http://www.inkscape.org/namespaces/inkscape"
   aria-hidden="true"
   focusable="false"
   data-prefix="fas"
   data-icon="info-circle"
   class="svg-inline--fa fa-info-circle fa-w-16"
   role="img"
   viewBox="0 0 512 512"
   version="1.1"
   id="svg827"
   sodipodi:docname="info-circle-solid.svg"
   inkscape:version="0.92.4 (5da689c313, 2019-01-14)">
  <metadata
     id="metadata833">
    <rdf:RDF>
      <cc:Work
         rdf:about="">
        <dc:format>image/svg+xml</dc:format>
        <dc:type
           rdf:resource="http://purl.org/dc/dcmitype/StillImage" />
      </cc:Work>
    </rdf:RDF>
  </metadata>
  <defs
     id="defs831" />
  <sodipodi:namedview
     pagecolor="#ffffff"
     bordercolor="#666666"
     borderopacity="1"
     objecttolerance="10"
     gridtolerance="10"
     guidetolerance="10"
     inkscape:pageopacity="0"
     inkscape:pageshadow="2"
     inkscape:window-width="1366"
     inkscape:window-height="745"
     id="namedview829"
     showgrid="false"
     inkscape:zoom="1.1289062"
     inkscape:cx="399.94464"
     inkscape:cy="256"
     inkscape:window-x="-8"
     inkscape:window-y="-8"
     inkscape:window-maximized="1"
     inkscape:current-layer="svg827" />
  <path
     style="stroke:#000000;stroke-opacity:1;stroke-width:3.002;stroke-miterlimit:4;stroke-dasharray:none;fill:none"
     d="M 256,8 C 119.043,8 8,119.083 8,256 8,392.997 119.043,504 256,504 392.957,504 504,392.997 504,256 504,119.083 392.957,8 256,8 Z"
     id="path839" />
  <path
     style="fill:#0065fc;fill-opacity:1;stroke:none;stroke-width:1.30175793;stroke-miterlimit:4;stroke-dasharray:none;stroke-opacity:1"
     d="m 256,78.138408 c 30.1481,0 54.58787,24.439772 54.58787,54.587872 0,30.1481 -24.43977,54.58787 -54.58787,54.58787 -30.1481,0 -54.58787,-24.43977 -54.58787,-54.58787 0,-30.1481 24.43977,-54.587872 54.58787,-54.587872 z"
     id="path837"
     inkscape:connector-curvature="0" />
  <path
     style="fill:#0065fc;fill-opacity:1;stroke:none;stroke-width:1.30175793;stroke-miterlimit:4;stroke-dasharray:none;stroke-opacity:1"
     d="m 328.78383,408.26506 c 0,8.61318 -6.98335,15.59653 -15.59654,15.59653 H 198.81271 c -8.61319,0 -15.59654,-6.98335 -15.59654,-15.59653 v -31.19307 c 0,-8.61319 6.98335,-15.59654 15.59654,-15.59654 h 15.59653 v -83.18151 h -15.59653 c -8.61319,0 -15.59654,-6.98335 -15.59654,-15.59654 v -31.19307 c 0,-8.61318 6.98335,-15.59653 15.59654,-15.59653 h 83.18151 c 8.61319,0 15.59654,6.98335 15.59654,15.59653 v 129.97112 h 15.59653 c 8.61319,0 15.59654,6.98335 15.59654,15.59654 z"
     id="path825"
     inkscape:connector-curvature="0" />
</svg>
